<?xml version="1.0" encoding="utf-8"?>
<!-- Generator: Adobe Illustrator 21.0.0, SVG Export Plug-In . SVG Version: 6.00 Build 0)  -->
<svg version="1.1" id="圖層_1" xmlns="http://www.w3.org/2000/svg" xmlns:xlink="http://www.w3.org/1999/xlink" x="0px" y="0px"
	 viewBox="0 0 1000 1000" style="enable-background:new 0 0 1000 1000;" xml:space="preserve">
<style type="text/css">
	.st0{fill:none;stroke:#000000;stroke-miterlimit:10;}
</style>
<image style="overflow:visible;enable-background:new    ;" width="1392" height="1392" xlink:href="B8F2C595.jpg"  transform="matrix(0.7184 0 0 0.7184 -7.579505e-03 -7.579505e-03)">
</image>
<path class="st0" d="M794.2,249C718.8,9.1,536.6,9,507,15.5C332.1-4.1,219.8,161.7,219,234c-3.5-9.5-5-11.5-5-11.5
	c-9.5,9.9-32.5,61.3-32.5,61.3c-0.1,12.9,14,46.5,14,46.5c0.5-8.5,22-94,22-94c-33,109.8-39,226.8-26,282.3
	c-45.2-19.7-42.5-80.3-44.5-77c-1,30.7,3.2,51.2,17,66c-46.7-15.3-8.3-137.3-8.3-137.3c-30.5,19-37.2,47.5-32.8,58.8
	c-15-59.3,48.5-113.8,64.2-116l9.2,19.7c-24.2,136.8-0.8,173-4.3,214.3c-12,87.4-73.5,144.4-104.5,111.6
	c59.5,58.7,113.2-60.7,118.3-98.8c-9.3,36.2-9.8,36-9.8,36c1.7,52.7,15.6,102.2,15.6,102.2c-34.6,128.1-120,117-124.1,113
	C175.3,825.9,206,651.9,202.2,655c9.9,48.7,12,51.3,13.3,58.8c9.5,60,11.8,140.4,71.5,178.2c-56.8-45.2-53.3-145-60.7-171
	c5.2,73.5,82.2,151,114.7,158c-16-15.7-25.5-33-25.5-33c10.8,20.6,33,35,57.5,36c-36.5-20.2-56.3-77.3-56.3-77.3
	c24.8,25.7,30.7,25,30.7,25c-7.3-12.7-9.7-15.3-9.7-15.3c-38-44-56-120.3-61.3-189.7c22,92.3,62.3,129.7,95.3,131.7
	c-51.7-8-79.3-120-85-167.3c12.3,16.3,33.3,24.3,42.3,27c-61.3-43-57.7-114-64.7-137.7c9,16.2,9,26,9,26
	c-0.2,8.2,17.5,60.2,18.3,68.8c-0.8-9.2-22.3-70.8-18.2-75c7.3,20.3,20,27.5,20,27.5c-26-37.7-25.7-75-26-78.8c4.1-1.2,5-0.7,5-0.7
	c11,45,24.8,61.2,38.7,65.2c21,7.4,57.7,6.3,62.5,2.2c21.2-26.7,19-49,9.8-55.8c-53.7-40.3-102.3-24.3-111.2-15.2
	c4.3,27,14,41.7,14,41.7c-8-29.2-1.5-35.8,8.5-36.8c58.7-4,93,28.5,93,28.5l-2.3-14.2l-1.9-1.3l2.6,11.8l-2.9-2.4l-1.3-11.4
	l-0.4,9.8l-1.1-11.1l-0.4,9.6l-1.5-10.9l-0.4,10.9l-1.5-12.3l0.3,11.4l-1.6-12l0.3,11.3l-1.9-12.2l0.4,10.8l-2.6-12.4l0.6,11.6
	l-2.8-13.6l1,12.8l-2.5-13.6l0.6,12.5l-2.6-13.6l1.1,12l-3.4-12.9l1.6,12.3l-3.4-13.3l1.1,12.3l-3.3-13.6l1.3,13.1l-3.3-14l1.5,13.3
	l-3.1-14.1l1.3,13.9l-3.3-14.8l1.9,14.1l-3.9-14.3l1.9,13.3l-3.4-14.4l1.9,14.1l-3.1-14.5l1,13.1l-2.3-13.7L348,452l-1.8-12.9v12.5
	l-2-13.5l0.3,12.5l-2-13.1l0.6,12.8l-2.4-13.4l0.9,13l-2.8-13.3l1.3,12.8l-2.9-13.3l1.3,13.1l-2.8-13.6l1.6,13.6l-3.3-14.1l1.9,13.5
	l-3.5-13.5l2,13.9l-3.8-14.4l2.1,14l-3.8-14l1.9,12.8l-3.8-13.6l1.9,13.5l-3.3-13.4l2.1,13.4l-3.9-13.5l2.6,13.1l-4.4-13.3l2.5,13
	l-4.5-13.4l2.6,13.9l-4.3-14.3l2.4,13.9l-4-14.1l2.6,13.9l-4-13.9l2.5,13.8l-4-13.9l2.5,13.9l-4.5-13.6l2.9,13.3l-4.4-13.4l2.4,13.3
	l-4-13.3l1.9,13.1l-3.6-13.3l1.8,13.6l-3.8-13.5l1.4,13.1l-3.3-13l1.3,12.9l-3.1-12.5l1.1,12.5l-3-12.3l1.5,11.9l-3.1-11.6
	c0,0,1.8,12.8,1.5,12.5s-2.9-12.4-2.9-12.4l0.8,12.3l-2.3-12l0.8,12.1l-2.3-11.5l0.6,11.1l-2.5-10.9l1.3,11l-3-10.8l1.3,11.4
	l-3.1-10.9l1.3,11.3l-2.8-10.8l1,11.3l-2.8-10.4l1.5,11.4l-3.1-10.3l1.9,12l-3.5-11.8l2.4,13.1l-4-12.4l3,14.8l-4.6-13.9l3.9,16.6
	l-5.5-15.8l4.8,18.4l-6.1-17l6.1,20.5l-7.4-19.9l7.6,24.1l-8.3-22.6l8.3,24.6v3.3l1.3,1.3l0.1,2l4.5,11.8
	c-8.8-34.4-9.3-44.3,30.9-38.9c-18.4,23.6,1.1,64.1,1.1,64.1c6.5,5.7,47.1,5.8,49,1.3c12.3-19.1,9.1-44.3,9.1-44.3
	c1.3,21.3-2.9,30.6-2.9,30.6c-3.4-8.5-14.9-13.9-14.9-13.9c1.5,26.8-28.4,21.4-23-1c-7.8-7-22.8,4.8-21.4,16.8l-3.7-20.7l0.9-18.8
	l6.4-13l15.4,2.5l16.4,4.5l11.9,5l12.8,7l0.9,2l-13.8-7.4l-12.4-5.4l-16.3-4.3l-14.3-2.9L319,452l14.3,3.1l16.4,4.1l12.6,5.4l14,7.8
	l-0.3,2l-14.4-8.5l-12.6-5.5l-15.9-4.1l-14.5-2.8l-1.3,1.6l15,2.6l16.3,3.9l12.3,5.4l14.6,8.8l0.3,1.8l-12.9-7.9
	c2.1,4.8-1,6.8-1,6.8c-10.9,1.2-10.1-3.8-10.1-3.8c2.3-3.4,9-4.1,9-4.1l-12.9-5.8l-16.5-3.8l-14.6-2.5l-0.6,1.5l15,2.5l16.1,4
	l9.4,3.5l-2.3,0.6l-8.1-2.6l-15.6-4.1l-15.4-2.4l-0.8,1.6l15.3,2.4l15.1,3.4l8,2.8l-1.4,1.4l-7.4-2.6l-15.3-3.4l-14.5-2.5l-0.1,1.4
	l13.8,2.4l15.3,3.8l7,2.3l-0.1,1.5l2.6,2.4l7.3,1.8l3.3-1l1.5-2.1l-0.4-2.8l2.3,1.3l1.9,1.5l2.5,1.1l1.9,1.4l2.3,1.5l1.1,0.6
	l-0.4,1.1l-1.6-0.4c0,0-0.8-1.1-1.4-1.4s-1.6-0.9-1.6-0.9s-0.6-0.3-1.3-0.6s-2.4-1.3-2.4-1.3l-1.8-1.3c0,0-0.6,0.6-0.5,1.3
	s0.2,0.9,0.8,1.1s1.9,0.3,2.3,0.6s0.8,0.8,1.4,1s-0.5-0.5,0.6,0.3s0.9,1.9,2.4,1.5s0.7,0.7,1.6,1.3s1.6,0.7,1.9,1s0.6-0.8,0.3,0.3
	s-0.4,1.1-0.4,1.1s-1.3-0.1-2.1-0.6s-0.9-0.6-1.4-1s-0.9-1-0.9-1s0.1-0.5-1.6-1s-1.2-0.3-2.3-0.9s-0.7-0.6-1.9-1.3
	c-1.4-0.8-1.6-1.1-2-0.4s-0.9,0.8-0.6,1.3s0.2,0.6,1.4,1s1.7,0.1,2.3,0.5s0.2,0.4,1.3,0.8s-1.4,0.6,1.1,0.3s1-0.2,1.9,0.8
	c1.1,1.3,0.9,1.3,1.9,1.6s1.1,0.3,1.6,0.6s0.6,0.3,0.6,0.3s0.6,0.3,0.6,1.1s0,0.8,0,0.8l-0.4,1.8l-0.3,1.8c0,0,0.2-0.1,0,1.1
	s-0.3,2.1-0.3,2.6s0.3-0.5,0,0.5s-0.3,1-0.3,1s1.1-0.1,0,0s-1.9-0.7-1.9-1s0.2-1.1-0.3-1.6s-1.1-1.3-1.5-1.5s-1.7-1.3-2.3-1.6
	s-1.6-1-1.6-1s-0.1-1-1.1-1.4s-1.4-0.7-2.4-1.1s-1.6-0.7-2.1-1s-0.6-0.3-0.6-0.3l-0.1-1.1c0,0,5.1,1.7,5.1,2s6.1,4.3,6.1,4.3
	l1.5,2.8l1-6.6l-1.4,2.8l0.1-3.5l-11-5.3l9.4,6.1l-10.1-4.8l9.8,6.4l-9.5-10.1l-2.3,6c-1.6-4-3.5-6.4-3.5-6.4l4.3,1.1l-1,2.6l-1-2.3
	l-10.1-6.8c-7.1,0-11.6,12.5-11.6,12.5c4.3-4.3,8.8-1.5,8.8-1.5c-0.3,10.7,3.4,9.4,3.4,9.4c6-0.1,4.9-9.3,4.9-9.3
	c-2.8-6-7.6-1.3-7.6-1.3l3.4-0.3l2,0.4l1,1.5l0.1,1.5l0.1,1.3c0,0-0.3,0.9-0.4,1.3s-0.5,1.4-0.5,1.4s0.6,0.3,0,0.6s-1.1,0.4-1.1,0.4
	l-0.8,0.5l-0.7,0.2c0,0-0.8,0-1.2-0.2s-0.2-0.5-0.6-0.6s-0.3-0.1-0.3-0.1s-0.2-1-0.3-1.3s-0.3-0.2-0.4-0.9s-0.1-0.6-0.1-1.4
	s0-1.6,0-1.6s0.2-1.2,0.1-1.5s0.1-0.6,0.1-0.6s-0.2-0.1,0.6,0s0.2,0,1,0.1s0.5-0.1,1.3,0.1s0.8,0.1,1.1,0.3s0.4,0.2,0.8,0.4
	s0.3,0.3,0.4,0.7s0.2,0.3,0.3,0.8s0,0.7-0.1,1.3s-0.2,0.6-0.3,1.1s-0.3,0.6-0.4,1.1s0.1,0.8-0.4,0.9s-1.1,0.3-1.6,0.2
	s-0.3,0.4-0.9-0.4s-0.7-0.6-0.9-1.3s-0.3-0.8-0.3-1.6s0-1.1,0-1.6s-0.2-0.5,0.2-0.9s0.2-0.6,0.7-0.4s0.4-0.1,0.9,0.2
	s0.3,0.1,0.9,0.4s0.6,0,0.9,0.5s0.4-0.1,0.5,0.9s0.1,1-0.3,1.8s0.1,0.1-0.3,0.8s-0.2,1.3-0.8,1s-0.9-0.6-1.3-1s-0.8-0.6-0.8-1.3
	s-0.1-0.8-0.1-1.2s-0.5-0.2,0-0.4s0.3-0.4,0.8-0.3s-0.3-0.5,0.5,0s0.6,0.2,0.8,0.5s0.2,0.2,0.3,0.7s0.2-0.2,0.1,0.5S350,488,350,488
	c-0.6,0-0.8-0.2-0.9-0.3s-0.3-0.4-0.3-0.7s0-0.3,0-0.3s-0.5,0.2,0,0s0.5-0.2,0.5-0.2l-0.7-0.8l5.9-2.3c2.1-0.4,5.3,2.6,5.3,2.6
	c-0.4-8.1-13.1-16.2-15.1-14.8l-8.1,12.3l6.9-12.9l-8.3,11.6l7.1-11.6l-9.1,10.9l7.8-11l-10.3,11l9.1-11.4l-12.3,12.4l11.4-12.7
	l-14.1,13.5l12.8-13.8l-17.1,16.6l15.9-17.1l-22.8-4.1l1.1,29l0.1-27.9l2.3,23.8l-0.8-23.6l3.8,20.4l-1-19.8l2.4,16.4l-1.5-16.3
	l2.2,14.2l-0.6-13.8l1.6,13.3l-0.3-13.1l1.6,12l-0.3-11.4l1.6,10.6l-0.4-10.7c0,0,1,10.4,1,10s0.2-9.9,0.2-9.8s0.5,9,0.6,8.9
	s0.5-9.3,0.6-8.9s0.3,8.8,0.3,8.4s0.9-8.2,0.9-8s-0.2,6.8-0.2,6.8s1.6-6.8,1.6-6.7s-0.5,6.2-0.4,6s1.4-7.1,1.6-5.9s-0.3,5.4-0.3,5.2
	s1.2-4.5,1.2-4.5v2.4l1-2.6l0.3,1.1l0.8-1l-10.2-22.5c-33.5,0.3-51.9-4.4-51.9-4.4c-4.7,6.5-5.8-5.9-5.8-5.9
	C261,249,325.3,123,410.3,81c-121,66-149.7,245.7-142.3,343.3c4.8-0.8,6.7-8,6.7-8c-3-19.8,12-69.3,12-69.3c-9.5,38.6-6,69.3-6,69.3
	c10.3-6.3,15.7-4.3,15.7-4.3c3.5-25.3,7-31.7,7-31.7c5.5-0.8,16.8,0.9,16.8,0.9c-0.1-2.4,0.3-4.9,0.3-4.9c-8.3-1.2-16-0.7-16-0.7
	c-1.1,3.1-1,4.7-1,4.7c6.8-29.1,29.2-61.5,29.2-61.5c-19.6,56.8-10.1,83.8-10.1,83.8c5.7,2.4,8.9-2.1,8.9-2.1
	c-0.3-9.9,0.9-19.1,0.9-19.1c20.2,0.6,31.9,4.5,31.9,4.5c0-3-0.5-6.5-0.5-6.5c-14-2.9-30.1-2.9-30.1-2.9c-0.4,2.4-1.3,4.9-1.3,4.9
	c4.8-32.6,32.8-85.6,32.8-85.6c-5.3,40.9-4,90,3.4,101.3c6.9,1.1,11.6-6.6,11.6-6.6c3.8-0.3,27.9,9,27.9,9
	c-6.1-6.3-28.5-15.1-28.5-15.1c0.6,6.1,0.6,6.1,0.6,6.1c-4.5-30.4,0.9-75.5,0.9-75.5c-0.3,46.4,11.1,73.8,11.1,73.8
	c16.9-2.8,59.1-0.8,59.1-0.8c6.6-21.2,10.8-79.4,10.8-79.4c0.4,57.8,5.6,70.9,0.8,79.6c8.4,2.8,14,0.5,14,0.5
	c13-38.3,12.6-98.6,12.6-98.6c10.8,54.3,8.9,101.1,8.9,101.1c5.3,2.6,15.9,0.5,15.9,0.5c10.6-19.6,16.1-68.8,16.1-68.8
	c6.4,43,23.4,65.3,23.4,65.3c-33.3,4-46.8,19.4-46.8,19.4c21.1-11.9,70.8-17.2,70.8-17.2l-2.7-5.7c-4.1,0.4-18.2,2.3-18.2,2.3
	c-18.4-20.4-16.9-87.4-16.5-112.9c5.1,41.1,27.6,98.8,42.6,126.5c0.9-7-0.5-10.7-0.5-10.7c8.8-0.8,16.8-0.5,16.8-0.5l-3.2-5.4
	c-8.1,0.2-14.4,0.2-14.4,0.2l0.9,5.7c-2.4-18.9-12.8-50-12.8-50c15.3,27.8,28.5,45.8,35.5,60.9c17.4,2.1,29.5,6.8,29.5,6.8
	c0.9-24.6-13-91.9-13-91.9c5.3,36.8,33.6,91.1,45.8,103.6c2.1-35.9-12.6-75.6-12.6-75.6c7.9,11.6,11.5,38.3,11.5,38.3
	c-10-271.2-129-302-129-302C687.3,145,672,459,658.8,474.8c-6.4-0.5-12.5,2.5-12.5,2.5c-20.1,1.8-55.9,10.3-55.9,10.3
	c-17.8,1.3-53.4,1.8-53.4,1.8c-7.9,1-13.8,10-19.8,10.8c43.8,0.1,34.8,18.6,122.6-3.8c11.1-9.3,14.5-19.4,14.5-19.4l-19.6,2.9
	c0,0-9.7,1.8-10,1.9s-8.1,1.9-8.1,1.9s-9.9,2.1-10.1,2.4s-7.5,1.3-8,1.5s-7.6,1.3-8,1.5s-7.2,0.8-7.5,0.8s-30,0.9-30,0.9l-9.8,0.1
	l-7.8,0.1c0,0-3.2,0.9-3.4,1.3s-3.4,2.2-3.5,2.5s-4.6,3.6-4.6,3.6l2.3,1.1l1.1-2.5l0.9,2.4l1.5-3.5l0.1,3.8l2.3-5.4l0.3,5.4l1.9-7.1
	l-0.8,7.1l2.3-7.5l-0.3,8.1l1.9-8.1v8.1l1.8-8.6l-0.4,8.7l1.8-8.6l-0.1,9.3l1.3-9.1l0.3,9.5l1.1-9.1l0.4,9.8l1-9.8l0.5,9.6l0.9-10
	l0.5,10.6l1.3-10.6l0.1,10.9l1.4-11v11l1.4-10.8v11l1.5-11.5l-0.1,12.3l1.8-11.6l-0.3,11.9l1.6-11.9l-0.3,12.3l1.5-12.5l-0.1,12.5
	l1.6-12.8l-0.1,13.3l1.4-13.3L559,505l1.4-13.8v14l1.1-13.9l0.4,14.1l1.1-14.1l0.6,14.5l0.8-14.5l0.6,14.5l0.8-14.6l0.9,14.6
	l0.6-14.6l0.9,14.8l0.3-14.8l1.1,14.5l0.1-14.8l1.3,14.8v-14.4l1.3,15l0.1-15.3l1.1,15l0.4-15.3l0.9,15.4l0.3-15.4l1,15.3l0.1-15.3
	l1.1,15.5l0.3-15.6l1.3,15.1l0.1-14.9l1.3,15.1l-0.1-15.5l1.4,15.1l-0.3-15.4l1.5,15.5l-0.1-14.8l1.3,14.4l0.1-14.8l1.1,15.3
	l0.1-15.4l1.6,15.3l-0.5-15.6l1.8,15.5l-0.6-15.4l1.8,14.8l-0.5-15.4L591,505l-1-15l1.8,15.3l-0.3-15.1l1.4,15.1v-16l1.4,15.6
	l0.1-16l1,15.5l0.1-15.8l1.1,15.8v-15.9l1.1,15.5l0.1-15.5l1,15.6l0.1-15.6l1,15.4l0.4-16.1l1,16.1l0.8-16.1c0,0,0.4,16.3,0.4,16
	s0.9-16.4,0.9-16.4s0.3,16.8,0.4,16.1s0.8-16.5,0.8-16.5l0.4,16.4l0.8-16.4l0.5,16l0.8-15.9L607,503l0.8-16.4l0.1,16.1l0.9-16.6
	l-0.1,16.4l1-16.6l-0.2,16.8l0.9-17.1l0.1,16.8l0.7-17.1l0.3,16.8l0.4-16.9l0.7,16.7l0.1-16.9l0.8,16.9l0.5-17.3l0.3,16.7l0.6-16.9
	l0.4,17l0.8-17.1l0.3,16.8l0.8-16.8l0.3,16.3l0.7-16.5l0.4,16.1l0.4-16.5l0.8,16.5v-16.4c0,0,1.1,16.5,1.2,16.3s-0.3-16.6-0.3-16.6
	l1.3,16.7l-0.5-16.8c0,0,1.2,17,1.3,16.3c0.2-0.6-0.3-16.7-0.3-16.7l1.6,16.4l-0.3-16.7l1.3,16.4l0.1-16.5l0.8,16.3l0.2-16.6
	l0.6,16.3l0.8-16.6l0.3,16.3l0.7-16.6l0.3,16.3l0.7-16.3l0.3,16.3l0.5-16.5l0.6,16.4l0.4-16.7l0.9,15.7l0.2-15.7l0.8,15.5l0.3-15.7
	c0,0,0.7,16.1,0.8,15.6c0-0.5,0.3-16.1,0.3-16.1s0.8,16,0.8,15.8s0.5-15.6,0.5-15.6s0.3,15.7,0.3,15.5s0.8-16.2,0.8-16.2l0.1,16.2
	L638,480l-0.5,15.9l1.8-16.2l-0.7,15.8l2-15.8l-1.1,15.2l2.3-15.3c0,0-1.2,14.5-1.2,14.3s2.8-14.8,2.8-14.8s-2,14.2-1.8,14
	c0.1-0.2,3.2-13.8,3.2-13.8l-1.8,12.5l3-13l-1.6,11.6l3.1-11.7l-1.1,9.3l2.4-9.7c0,0-1,8.9-1,8.2c0-0.8,2.6-8.3,2.6-8.3l-0.6,4.8
	l2.2-4.9l1.3-2.3l5.2-0.3c-6.7,26.1-23,50.1-27.9,53.6c28.7-18.4,38.7-57.4,38.7-57.4c-5.5,34.5-23.3,129.5-78.8,145.5
	c65.3-10.3,100.3-112,100.3-112c-22.3,57-49.5,86.3-49.5,86.3c-18.3,78.8-28.3,122.3-74,160.8c62.4-24.8,86.2-131.9,86.3-128
	c-6.3,104.5-53.8,180.8-71,192.3l-9.8,16.3c20-11.3,47.5-41.3,47.5-41.3c-13.5,15.8-13.5,15.8-13.5,15.8
	c-18.5,52.3-54.5,72.3-54.5,72.3c25.3,10,57.3-32.5,57.3-32.5c-13.8,21.1-28.8,32-28.8,32c15.5-1.5,118.5-59.5,132.8-159
	c-14.8,77.3-20.5,145.3-72,172c74.3-24.5,82-174.8,82-174.8c18.3-19.5,28-119.8,28-119.8c-8-12.5-13.3-36.8-13.3-36.8
	c39,139.8,146.3,120.8,159.8,100c-50.8,37.8-126.5-30-142-117.8c39.3-270.3-70-414.3-70-414.3c30,45,47.1,97.7,47.1,97.7
	C747.3,234.7,761,263,761,263c-4.3,15.2-6.7,33.7-6.7,33.7c10.2,17.3,24.3,28,24.3,28c-5.3,7-22.1-1.4-22.1-1.4l4.5,34.8
	c11.5-2.5,19.2-20.9,19.2-20.9c-0.1,4.7,2.3,11.1,2.3,11.1c-7.8,21.5-19.8,31.1-19.8,31.1c11.3-7.9,19.8-31.1,19.8-31.1
	c-3.7-16.1-4-23.6-4-23.6c3.8,41.1,20.7,60.8,25.7,83.3C829.5,534.3,765,520.3,765,520.3c28.6,11.9,53.5-11.5,53.5-11.5
	c-3.8,69.8,14.8,153.7,14.8,153.7c38.4,19.8,64.7-1.7,64.7-1.7c-1.9,19.6-62.2,12.3-62.2,12.3c20.7,65.5,77.7,163.2,153.7,135.2
	C894,836.5,839.8,731,839.8,731c24,45.5,64,192.3,158.5,200.8C907.5,933.4,845,839,819,763.3c8.1,26.9,7,39.3,7,39.3
	c-28.3-26.5-66.8-30-104-57.5c37.8,33.3,117.5,32.5,121.3,101.8c-62.4,63.4-238.2,101.8-330.2,153.3l75.9-0.1l-1.8-33.7l35.4-13.6
	l2.1,47.3l265.8,0.1c-10.3-38-19.3-115.4-47.2-153.3c27.8,37.9,38,123.3,47.2,153.3L480,1000c2.6-14.8,15.8-37.5,15.8-37.5
	c4,4.4,6.5,2,6.5,2c1.4-3.9-2.3-7.3-2.3-7.3c-5.5-6.1-20-16-20-16c16-5,41-20.5,41-20.5c-1.6,10-21,36.5-21,36.5
	c10.5-12.3,21-36.5,21-36.5c11.1-3.9,11.3-9,11.3-9c-6.2,1.4-14.3,5.3-14.3,5.3c-22.2,9.9-42.3,21.5-42.3,21.5
	c-13-9.9-46.5-27.5-46.5-27.5c-3.5,0.4-2.5,3.5-2.5,3.5c1.9,4.4,15.5,10.5,15.5,10.5c8.3,4,28.5,15.3,28.5,15.3
	c-9.4,7.1-20.5,16.5-20.5,16.5l-4.5,2.5c-3,1.4-2.3,5.3-2.3,5.3c5,2.7,8-3.3,8-3.3c8.1-8.9,23.3-16.5,23.3-16.5
	c7.9,2,19.1,15,19.1,15c5.1,6.8,8.4,4.8,8.4,4.8c2.3-6.4-2.3-7.3-2.3-7.3c14.4-17,21-36.5,21-36.5c9.8-4.1,11.3-9,11.3-9
	c-3.4,0.9-7.9,2.6-7.9,2.6c7.8-8.8,41.3-59.7,41.3-59.7c-38.3-2-55.6,18-55.6,18c21.8-21.6,55.6-18,55.6-18
	c6.4-11.2,25.4-35,25.4-35c-14.5,11.7-18.2,13.2-18.2,13.2c6.1-10.1,9.8-16.3,9.8-16.3c12.6-8.9,20.9-25.5,20.9-25.5
	c-45-10.7-42.6-52-34-117.1c34.6-16.1,63-45.3,63-45.3c-53.3,56.3-173.8,89.9-173.8,89.9C349.2,676,316.8,648.5,298,600.4
	c20.4,71.3,129.7,103.3,137.8,109.1c6.8,68.6-14.2,73.1-54.2,89.1c-31.1-67.9-66.9-64-82.4-55.6c64.7-30.7,100.3,103.9,104.2,109.9
	c39.1-2.6,53.4,18.4,53.4,18.4c-19.5-23.5-53.4-18.4-53.4-18.4c5.7,12.9,11.5,28.3,11.5,28.3c56.3,43.9,133.1,2.1,133.1,2.1
	c-85.6,41.4-133.1-2.1-133.1-2.1c5.5,15.7,13,28,13,28c11.3,19.4,37.3,91,37.3,91l-33.2,0.1l-315.3-0.1
	c7.8-30.8,18.5-89.8,18.5-89.8c-30.2,27-67.3,19.7-67.3,19.7c48.2,0.8,78-52.7,78-52.7c-8.1,19.8-10.7,33-10.7,33
	c5.8-32.3,26.3-60.7,26.3-60.7c43,52.8,112.2,70.3,171,103l-2.7,47.5l34.4,0.1l2-32.4l65.8,32.4c-107.5-54-181.9-87.3-181.9-87.3
	c-23.6-10.1-70.6-37-88.6-63.5c-1-48.3,63.6-70.6,63.6-70.6c-27.1,8.4-49.7,33.7-49.7,33.7c6-20.5,14.8-60.6,14.8-60.6
	c13.6-22.7,21.4-54,21.4-54C196.8,642.7,196,595.8,196,595.8c-28,66-69.7,100.5-108.5,62.9c44,38.7,98.5-52.6,104.5-111.6
	c3.8-67.5-31.7-92.1,27-313.1C232.5,122.6,361.9-2.1,507,15.5C646.6-2.6,762.1,124.9,794.2,249c18,27.2,23.8,38,23.8,38
	c0.5,10.4-23.3,48.3-23.3,48.3c-12.3-6.3-16.3-10.5-16.3-10.5c8.5,6.2,16.3,10.5,16.3,10.5c7.7-12.9,13.1-22.6,13.1-22.6
	c96.7,48.3,81.7,113.8,81.7,113.8c6.5-30-44-55.3-44-55.3c48.5,130.5-8.8,138.1-8.8,138.1c35.3-24.6,15-97.1,15-97.1
	c19.4,73.3-32,100-32,100c13.8-7.8,24.8-50.8,24.8-50.8c-10.5,42.1-24.8,50.8-24.8,50.8c52.9-30.9,32-100,32-100
	c18,80.3-15,97.1-15,97.1c57.5-20.8,8.8-138.1,8.8-138.1c52.4,28.5,44,55.3,44,55.3c9.9-72.5-81.7-113.8-81.7-113.8
	c12-21.2,10.2-25.7,10.2-25.7c-16.1-33.8-43.8-61-43.8-61c-8.1,2.8-13.3,37-13.3,37c5.1-33.5,13.3-37,13.3-37
	C783.4,235.2,794.2,249,794.2,249z"/>
<path class="st0" d="M409,607.8c32-14,87.6,0,87.6,0c0.9,4.3-3.8,6.4-3.8,6.4l-6.1-8.5L483,605c-0.1,1.9-6.6,6-6.6,6l-5.8-7.8
	l-4.6-0.5l-6.6,6.6l-8.6-7.6l-3.5-0.1l-7,7.7l-8.2-7l-1.1,0.1l-5.2,8.4l-7.1-6.2l-2.3,0.6l-3.2,8.2L409,607.8
	c0,47.3,43.4,50.8,43.4,50.8c52.1,2.3,44.2-50.8,44.2-50.8C439.9,594,409,607.8,409,607.8z"/>
</svg>
