<?xml version="1.0" encoding="utf-8"?>
<!-- Generator: Adobe Illustrator 21.0.0, SVG Export Plug-In . SVG Version: 6.00 Build 0)  -->
<svg version="1.1" id="圖層_1" xmlns="http://www.w3.org/2000/svg" xmlns:xlink="http://www.w3.org/1999/xlink" x="0px" y="0px"
	 viewBox="0 0 800 800" style="enable-background:new 0 0 800 800;" xml:space="preserve">
<style type="text/css">
	.st0{fill:none;stroke:#000000;stroke-width:2;stroke-miterlimit:10;}
</style>
<path class="st0" d="M383.9,548c-21.3-17.9-62.6-18.3-98.9,0.5c-41.3,21.4-60.6,59.5-43.1,85.2s65.2,29.1,106.5,7.8c30.8-16,49.4-41.3,49.5-63.7c-0.9-315.8,0-329.2,0-329.2s43.1,0.5,77.9,47.6c56.4,76.4,44.2,154.8,7.7,225.6c60.8-74,51.2-180.1,19.3-232.3S397.9,176.7,397.9,95c-6.9,0-13.9,0-13.9,0C383.5,542.5,383.9,548,383.9,548z"/>
</svg>
