<?xml version="1.0" encoding="utf-8"?>
<!-- Generator: Adobe Illustrator 21.0.0, SVG Export Plug-In . SVG Version: 6.00 Build 0)  -->
<svg version="1.1" id="圖層_1" xmlns="http://www.w3.org/2000/svg" xmlns:xlink="http://www.w3.org/1999/xlink" x="0px" y="0px"
	 viewBox="0 0 800 800" style="enable-background:new 0 0 800 800;" xml:space="preserve">
<style type="text/css">
	.st0{fill:none;stroke:#000000;stroke-miterlimit:10;}
</style>
<g id="圖層_2">
	
		<image style="overflow:visible;enable-background:new    ;" width="1202" height="1202" xlink:href="8E8778B0.jpeg"  transform="matrix(0.6656 0 0 0.6656 -2.000332e-02 -2.000332e-02)">
	</image>
</g>
<g id="圖層_1_1_">
	<path class="st0" d="M649.4,555c20-76.4-9.1-121-9.1-121c-3,15-20.2,8.2-21.3,5.2c-16.6-11.8-8.2-23.8-8.2-23.8
		c18,10.2,9,18.2,9,18.2c-9,25-26.6,13.6-26.6,13.6c10.8-21,27.2-4.2,27.2-4.2c14.8,9.8,5,21.6,5,21.6c-22-9.4-8.6-20-8.6-20
		c10.8-24.8,23.2-11.8,23.2-11.8l-17-26.2c-12.2,8.8-20-6.6-20-6.6c7.8,23.2-9.6,26.2-9.6,26.2c-11.4-14.4,4.2-22.4,4.2-22.4
		c-19.2,5.6-25.4-8.2-25.4-8.2c17.8-9.8,25,0,25,0c-4.6-19.2,8.2-20.8,8.2-20.8c12.8,12.2-1.8,22.2-1.8,22.2
		c15.2-4.2,19.4,5.4,19.4,5.4c23.2,39.4,40.2,12.6,40.2,12.6c5-31.4-8.8-44-8.8-44c13.4,35.6-1,41.8-1,41.8
		c-30.8,0.6-53.6-45-53.6-45c1.2-10.6-5.4-13.6-5.4-13.6c-14.6-1-12.6-10.2-12.6-10.2c-41,45.8-51.8,46.2-51.8,46.2
		c8.2-19.8,0.6-45,0.6-45c28.2-4.8,39-5.4,39-5.4c-18.6-5.4-37.4,1.6-37.4,1.6c-1-8.2-3.8-10.2-3.8-10.2c7.2,52.2-5,71.4-5,71.4
		c5.8-31.4,1.4-32.8,1.4-32.8c-1.2,24-4.6,26.2-4.6,26.2c-3.8-0.8-8.6,7.8-8.6,7.8c-16.6,24.6-12.8,25.8-12.8,25.8
		c106,128.6,85.8,199.8,85.8,199.8c-23.2,115.2-95.2,129.4-95.2,129.4c-139.5,26.8-204.9-8.2-204.9-8.2
		C216.4,712.2,209.6,635,209.6,635c-3.4-19-2.4-38.6-2.4-38.6c-2.8,33,1.4,45.4,1.4,45.4c-25.8,34-16.2,57.6-16.2,57.6
		c-36.6,2.2-61.6-60.8-61.6-60.8c-3.4,47,24.8,55,24.8,55c-50.3-20.8-31.5-86-31.5-86c-37.6,42.2-37.6-12.8-37.6-12.8
		c2.4,41,53.6-9.8,53.6-9.8c3.9,1.6-1.6-5.8-1.6-5.8c-35.9-37,25.8-103.2,25.8-103.2c-42.5,28.4-34.4-22.6-34.4-22.6
		c7.8-18.1,10-16,10-16C132.5,469,165,459,165,459c4.8-11.1,17.6-10.7,17.6-10.7c1.8-19.9,14.2-16.7,14.2-16.7
		c11-17.7,27.6-32.2,27.6-32.2c-8.6-29.4-17.2-38.3-17.2-38.3c-30.4-16.9-26.4-22.5-26.4-22.5c3.2-3.4-0.4-6-0.4-6
		c-17.2-29.7-3.6-47.2-3.6-47.2c-19,5.6-27-3.7-27-3.7c-12.2-6.6-22.4-6.8-22.4-6.8c18.4-15.4,26-28.9,26-28.9
		c10.1-14.6,31.1-14.3,31.1-14.3c-17.8-29.9,10.4-73,10.4-73c9.6-45,59.2-79,59.2-79C265.6,14.8,307,21.4,307,21.4
		c30.4,7.8,32,31,32,31c-6.8-15.7-8.6-12.8-8.6-12.8c-27.4,6.4-71,35.2-71,35.2c12,63.8,84.8,81,84.8,81
		c-64.8-12.8-85.8-71.4-85.8-71.4c-5.8-61.8,33-71.4,33-71.4c42.7-7.4,50.2,18.8,50.2,18.8c34.4-27,61.8-4.8,61.8-4.8
		c23.8,38.6-6.9,63.4-6.9,63.4c-39.8,39-50.6,23-50.6,23c28.2,9.6,60.8-42.6,60.8-42.6c-1.4-32.6-16.6-35.2-16.6-35.2
		c-2.2-1.2-4.6-2-7-2.3c-17.2-2.6-37.8,14-37.8,14C365.6,29.6,380,31.4,380,31.4c18.8,4,29,34.4,29,34.4c5-25.8-3-38.2-3-38.2
		c68.8-1,115.8,21.6,115.8,21.6c58,28.8,85,66.6,85,66.6c35.8,51.4,41.4,98.2,41.4,98.2c6,45.6-3.8,66.4-3.8,66.4
		c-18.8,35.4-38.6,48-38.6,48c-12.2-8.8-9.8-12-9.8-12c-1.6-53.4-15-77.4-15-77.4c-38.4-71-83.8-101.4-83.8-101.4
		c-31.8-31.4-56.6-36.8-56.6-36.8c51.4,17.8,50.2,35.2,50.2,35.2C439.2,113,364,117.6,364,117.6c-71.8,4.8-113.6,41.6-113.6,41.6
		c-16.2,17.6-26.2,33-26.2,33c-22.9-23.4-29.3-29.8-29.3-29.8c-24.4,40.8-9.8,68-9.8,68c-21.4,2.4-33.8,16.2-33.8,16.2
		c-13.8,19-22.6,27.2-22.6,27.2c13,3,23.8,8,23.8,8c17,9.6,35.8-3,35.8-3c-14.8,8.8-14.6,20.6-14.6,20.6c0,19.4,10.6,35.8,10.6,35.8
		c2.6,3.4,3.4,1.8,3.4,1.8c6.6-5,16.8-11,16.8-11c24.6-15.6,21.6-40.8,21.6-40.8c10,14.6,31,17.6,31,17.6
		c15.4,1.4,28.2,7.4,28.2,7.4c2.8,1,2.4-5.8,2.4-5.8c0.2-35-27-54.2-27-54.2c13,6.4,34.2-47.8,34.2-47.8c-35-11-57.2,9.4-57.2,9.4
		c-2.2-9.6-16.2,4.8-16.2,4.8c-9.4,10.4-7.2,26.6-7.2,26.6c-5.4-12.4-33.4-7.8-33.4-7.8c-1.8,14.6,19.8,20.6,19.8,20.6
		c-11,12.2-1.4,32.8-1.4,32.8c20.6-5,20.2-28,20.2-28c8,15.8,32.6,6.4,32.6,6.4c-3.6-18.8-23.8-22.6-23.8-22.6c11.8-11.6,0-41,0-41
		c-0.4-3,3.4-7,3.4-7c72-88.2,206.2-58.2,206.2-58.2c70,13.4,103,44.3,103,44.3c32.6,27.8,43,67.8,43,67.8
		c14.2,33,12.2,72.2,12.2,72.2c-5.8-15.6-13-4.2-13-4.2c4.8-24.6-2.4-30.4-2.4-30.4c-12.6-16.2-19.4-3.2-19.4-3.2
		c6.8-37.4-25.6-48.6-25.6-48.6c30.4,11.4,24.2,49.8,24.2,49.8c13.4-14.6,22.2,6.8,22.2,6.8c7.4,13.8,2.6,21.8,2.6,21.8
		c20.2-3,17.4,31,17.4,31c0.4,9.4-9.6,6-9.6,6c-14.3-3.7-2.4-16.2-2.4-16.2c7-8.2-11.4-8.2-11.4-8.2c-7.7,0.6-4.8-5.8-4.8-5.8
		c-7.6-0.6-18.4-14-18.4-14c-21.6-22.9-33.4-57-33.4-57c-7-24.9-24.6-48.4-24.6-48.4c18.3,22,27.6,58.2,27.6,58.2
		c10.7,27.4,23.2,28.4,23.2,28.4c7-0.1,6.2,6.6,6.2,6.6c-1.9,8.5,6.2,11.4,6.2,11.4c-22,1.2-32.6-19.8-32.6-19.8
		c1.4,17.3,19,35.2,19,35.2c6.5,5.4,23,3.2,23,3.2c-25.5-0.1-8.6,5-8.6,5c-65.7,2.6-93.8-38.6-93.8-38.6c-6.4-12.4-6.8-9.8-6.8-9.8
		c3.5,15.2,3.8,19.8,3.8,19.8c-2.3,2-7.2-3-7.2-3c-21.7-30-18.6-60.4-18.6-60.4c1.4-21.8-4.6-39-4.6-39c8.8,27.4-2.2,90.2-2.2,90.2
		c-9.1,22.2-17.8,32.2-17.8,32.2c11.3-13.2,10-46.8,10-46.8c-4.8,29-47.8,71.4-47.8,71.4c-2.9,4.3-16.6-6.2-16.6-6.2
		c-22.1-17.7-26.4-34.2-26.4-34.2c-5,13.4,12.6,33.8,12.6,33.8c-15.1-4.2-25-31.8-25-31.8c-14.4-61.1,7.6-111.4,7.6-111.4
		c-13.8,39-15,50.4-15,50.4c-19,28.8-23.2,63-23.2,63c-0.9,5.9-7.2,1.2-7.2,1.2c-16.2-11.2-8.4,44.2-8.4,44.2
		c2.4,30.7,18.4,50.6,18.4,50.6c-40.8-19.3-48.6-37.2-48.6-37.2c-17.3-28.6-18.6-51.8-18.6-51.8c6.3,22.6,4.4,37.8,4.4,37.8
		c-1.9,29.2,7,60,7,60C213.3,387.5,204,330,204,330c-7.2,3.7-20.8,11.6-20.8,11.6c23.1,17.7,26.2,20.4,26.2,20.4
		c5,13.8,13.6,35.2,13.6,35.2c-13.8,17.5-13.2,15.6-13.2,15.6c-9.8-5.5-8.8-7.8-8.8-7.8c2.5-10.2,5.4-15.6,5.4-15.6
		c9.8,7.9,11,16.8,11,16.8c6.1-3.8,16.6,9,16.6,9c-10.3,8.4-9.2,5.8-9.2,5.8c-18.3-5.7-30.6-10.6-30.6-10.6
		c-11.3,3.1-10.4,9.6-10.4,9.6c8,8.8,15.8,1.4,15.8,1.4c5.3-4.6,10.4-3.4,10.4-3.4c9.8,3,5.8,14.8,5.8,14.8c-0.8,3.5-3,7.2-3,7.2
		c-7.6-3.4-10-12.6-10-12.6c2.9-5,19.2-25.4,19.2-25.4c-17.1,19-23.6,29.2-23.6,29.2c1.4,9.8-1.8,11.4-1.8,11.4
		c-14.9,11.8-27.8-1-27.8-1c-3.7-7.4-1.4-10.2-1.4-10.2c7.9-0.8,14.4,10.2,14.4,10.2c4.5-10.5,18.4-8.8,18.4-8.8
		c1.9,11.8-16.4,16.6-16.4,16.6c-20.2,1.1-17.6,18.2-17.6,18.2c19.4,0.4,17-15.8,17-15.8c4.4,16.8,16,11,16,11
		c4-9-5.8-12.8-5.8-12.8c-26.6-0.9-25.2,11.4-25.2,11.4c-29.5,8.4-30.6-21.8-30.6-21.8c-16.1,24.2-1.8,40.6-1.8,40.6
		c6.5,9.5,25.6-2.8,25.6-2.8C90.8,552.7,150,586.2,150,586.2c-26.8-17.9-5.2-58.2-5.2-58.2c-6.7,32.2,16.2,51.6,16.2,51.6
		c18.8,20.9,45.2,14.2,45.2,14.2c14.1-2.6,7.6-6.2,7.6-6.2c-9.1-5.6-14.6-14.2-18-23c-6.1-16.1-4.8-32.7-4.8-32.7
		c-0.5-8.4,5.8-21.8,5.8-21.8c-5.4,16.7-4.6,27.2-4.6,27.2c-0.2,12.6,3.8,32.8,3.8,32.8c6.2,16.7,11,5,11,5
		c1.7-47.3,25.6-80.6,25.6-80.6c2.2-20.4,15.8-35.6,15.8-35.6c-4.4-22.2-0.4-22.2-0.4-22.2c18.1-8.4,21.6-9.8,21.6-9.8
		c-15.9-31-19.2-33.8-19.2-33.8c-13.5-6.1-17-9.2-17-9.2c5.8,33.8,5.6,35.8,5.6,35.8c5.5,10.8,21,14.2,21,14.2
		c6.3-2.3,8.8,1.6,8.8,1.6c3.6,6.7,11.6-7.4,11.6-7.4c-15.1,13.7-29.2,29.2-29.2,29.2c-18.5,21.5-16.6,39-16.6,39
		c3.1,12.8,7.2,12,7.2,12c-8.7-7,1.4-24.8,1.4-24.8c-2.2,15.3,14.6,24.6,14.6,24.6c13.9,7,17.4,2.6,17.4,2.6
		c-16.8-10.8-2-29.2-2-29.2c20.3-20.5,21.8-28.4,21.8-28.4c10.1-22.9-7.2-31.4-7.2-31.4c-14.8-1.7-19.2-20-19.2-20
		c-11-4.8-14.4-6.4-14.4-6.4c15,4.2,15.4,3.6,15.4,3.6c0,17.7,22.6,22.6,22.6,22.6c29.7-7.4,52.8,3,52.8,3
		c6.9,3.6,32.6,3.4,32.6,3.4c42-9.9,83.4-16.2,83.4-16.2c17.5-0.8,16-14.6,16-14.6c-13.5,8.7-24,10-24,10
		c22.9-16.3,28.2-49.2,28.2-49.2c5-19.1,1.6-48.2,1.6-48.2c-0.5,9.9-0.8,15.4-0.8,15.4c-37.5-27.4-78.8,10-78.8,10
		c-4.4,3.7-3.4,5.4-3.4,5.4c12.3-9.9,28-14.6,28-14.6c1.6,6-3.2,11.8-3.2,11.8c5.9-5,12-2.2,12-2.2c4.9,4.8-1,10-1,10
		c7.3,2.9,2.2,8.6,2.2,8.6c-6.5,4.7-9.4-2-9.4-2c-2.5-1.4-2.6,5-2.6,5c1.5,30.2,20.6,33.2,20.6,33.2c14.2,2.8,20-15.8,20-15.8
		c4.6-16.3,2.2-35.4,2.2-35.4c0.7-22.8-15.8-19.4-15.8-19.4c-20.4,3.6-22.8,6.4-22.8,6.4l28.1-4.7l-28.8,6.8l32.6-5.4l-32.8,6.9
		l33.8-5.3l-34,6.6l35.6-4.9l-36.5,7.1L466,328l-29.9,5.9l30.5-4l-28.3,6.1l28.4-3.1l-27.4,5.3l27.3-3l-27.1,5.3l27-2l-27.6,5
		l28.5-2l-19.6,3.3c-3.8,7.1-0.4,17.6-0.4,17.6c1.8,5.2,4.6,0.2,4.6,0.2c1.1-7.5-1.4-15.4-1.4-15.4l-2.5-0.9l1.5,1.5l-2.3-0.3
		l2.3,1.4h-2.5l2.9,1.1l-3,0.6l3.4,0.5l-3.6,0.8l3.6,0.4l-3.8,0.6l3.6,0.3L447,354l3.6,0.6l-3.6,1h3.6l-3.8,1l3.6,0.1l-3.3,0.9
		l3.4,0.5l-3.1,0.6l3.5,0.4l-3.3,0.8l2.9,0.8l-2.5,0.5l2.5,0.4l-1.5,0.9l0.8-17.3l-20.5-21.5c-15.8,6.6-25.7,12.8-25.7,12.8
		c16.3-18.2,9-25.2,9-25.2c-9.8,5.6-37.3,37.7-37.3,37.7c-8.3,1.9-29.8-19.5-29.8-19.5c-6.5-7.1-12.5-20.6-12.5-20.6
		c-0.8,14.5,14,32.6,14,32.6c-9.4-2.5-8.2,1.4-8.2,1.4c-23.1-31.7-62.7-18.4-62.7-18.4c-2.3,1.9-1.1,6.8-1.1,6.8
		c1,1.4,7.8-1.1,7.8-1.1c21.5-3.9,38.5,3,38.5,3c11.1,4.6,16.3,10.1,16.3,10.1c-11.1-11.8-37.1-13.6-37.1-13.6l-10.1,0.3
		c2.2,4.1-2.5,13.8-2.5,13.8c6.8-4.3,12.6,0.2,12.6,0.2c0.7,2.4-2.2,6.6-2.2,6.6c8.2,0.7,3.8,6.7,3.8,6.7c-4.1,3.7-6.4-1.7-6.4-1.7
		c-4.3-1.3-6.7,3.7-6.7,3.7c-0.2,14.9,14.2,32.1,14.2,32.1c12.2,14.6,24.8,4,24.8,4c11.1-13.5,5.8-37.4,5.8-37.4
		c-2-11.9-7.2-21.2-7.2-21.2l-1.2,0.7l-33.8-6.8l34.4,8l-34.6-6.6l35.1,7.6l-34.7-5.9l34.5,6.8l-34.9-5.1l35.2,6.2l-35.7-4.4
		l35.9,5.5l-36.4-3.7l36.1,4.6l-37-2.9l38,3.9l-26-0.7l27.6,2.2l-27.6-0.9l28,2.2L301,347l29.9,1.4l-30.5,0.1l30.6,1.1l-30.4,0.1
		l31.2,1.7l-28.6-0.3l28.5,1.6l-27.8-0.1l27.1,1.6l-15.8-0.2c-0.2,0.2-0.5,0.3-0.7,0.6c-3.1,3.1-0.9,13.3-0.9,13.3
		c1.4,6.4,4.8,3.6,4.8,3.6c3.4-3.4,0.3-15.9,0.3-15.9c-2.6-0.6-3.1-0.6-3.1-0.6l-1.1,1.1h3.3l-3.8,1l4.3-0.2l-4.2,1.4l4.2,0.2l-4,1
		l4,0.2l-4,0.8l4.2,0.2l-4.6,0.7l5,0.6l-5.1,0.5l5.4,0.4l-5.3,0.6l5.4,0.3l-5.1,0.7l4.9,0.2l-4.8,0.8l4.7,0.2l-4.6,0.8l4.6,0.1
		l-4.5,0.7l4.2,0.1l-0.1,0.7l-3.9-0.2l3.9,1.1l-3.5,0.2l3.4,0.6l-3.1,0.5l1.5,0.5l-4.1-37.8l-16-2.6c-8.5-3.9-22.5,2.1-22.5,2.1
		c-2.9,44.2,20,74.9,20,74.9C270,396.9,270,395.2,270,395.2c-2.4,26,23.3,27.5,23.3,27.5c16.3,24.8-8,47.7-8,47.7
		c11.4-15.4,13.1-14.3,13.1-14.3c3.7-0.7,6.6-5.5,6.6-5.5c3.3-3.8,11.7-5.6,11.7-5.6c6.1-5.3,14.7-9.3,14.7-9.3
		c8.2-3.1,19.8,0.4,19.8,0.4c9.2,4.5,9.9,23.7,9.9,23.7c-0.5,4.5,16.2,2.8,16.2,2.8c-6.3-13.8,19.5-29.5,19.5-29.5
		c18.6-8.7,44.5,7.6,44.5,7.6c5.4,4.7,5.6,7.7,5.6,7.7c2.2,7.2,16-4.4,16-4.4c3.7,13.1-4,9-4,9c-12.5,2.4-22.4,0.4-22.4,0.4
		c0,17.3-7.8,18.4-7.8,18.4c-8.6,2.8-12.4-1.2-12.4-1.2c-3.6,10.1-21.2-4-21.2-4c3.8,16.2-17.5-2.4-17.5-2.4
		c-13.4,2.7-17.1-1-17.1-1c-0.5,13.2-10.1,2.1-10.1,2.1c-3.4,10.9-16.6,3.7-16.6,3.7c-23,13-32.4-7.9-32.4-7.9
		c-1.5-9.9-9.1,1.6-9.1,1.6c-9.4,11-9,12.1-9,12.1c94.3,23.6,184.4,5,184.4,5c-9.6-48.2,4.4-67.6,4.4-67.6
		c8.2-24.6,15.6-25.6,15.6-25.6c28.4-23.2,29.2-48,29.2-48c10,18.6,6.4,40,6.4,40c-18.2,31.4-16.6,34.5-16.6,34.5
		c1.7,7.8,17.6,10.3,17.6,10.3c25.1,3.3,9.9,30.6,9.9,30.6c-10.6,11.1-20-8.2-20-8.2c-4.9-8.5,11.8-13.6,11.8-13.6
		c3-3.3-8.2,1.4-8.2,1.4c-1,1.3-1.6-2.7-1.6-2.7c3-8.7-10.7-15.3-10.7-15.3c-0.9-0.6-4,4.5-4,4.5c-6.2-5.8-6-23-6-23
		c-6.1,27.3,25.5,56.1,25.5,56.1c17.2,20.9,12.4,41.1,12.4,41.1c-4.3,12.2-6.7,10.4-6.7,10.4c5-10.2,0.9-21,0.9-21
		c-1.9-4.9-6.5-8.4-6.5-8.4c4.9,21-10.5,29.5-10.5,29.5c-14.7,7.3-21.8,6.5-21.8,6.5c17.6-8,2.2-29,2.2-29
		c-18.2-14.4-22.6-31.2-22.6-31.2c-2.2,42.5,18.5,69.5,18.5,69.5c8.5,25.4,13.2,90.4,13.2,90.4c0.2,8.2,17-2.7,17-2.7
		c-3.8-50.2-27.8-83.7-27.8-83.7c35.7,54.1,28.4,104.6,28.4,104.6c2.6,6.3,17.6-1.9,17.6-1.9c12.2-5.4,23.6-2.8,23.6-2.8
		c17,3.8,24.1-7.6,24.1-7.6c2.7-39.4-10.7-65.5-10.7-65.5c-22.2-55.8-36.8-72.8-36.8-72.8c-11.4-17.6-4-20-4-20
		c9.4-8.8,10.2-0.2,10.2-0.2c22.4,33.4,31.8,62.2,31.8,62.2c10,26,12.8,49,12.8,49c1.4,4.6,6.6-7,6.6-7c15-46.2-13.6-99.8-13.6-99.8
		c37.4,62.4,12.2,105.8,12.2,105.8c-7.4,18,3.4,37.6,3.4,37.6c24.2,38.6,21,62.2,21,62.2c-0.8,17.6-13.4,30.4-13.4,30.4
		c57,2.4,89.4-51.8,89.4-51.8c12.6-25,5.4-43.4,5.4-43.4c20.6,67.2-12.2,76-12.2,76C749.4,648.2,696,557,696,557
		c-11.4-16.8-24.6-22.6-24.6-22.6c68.6,29.4,50.4-40.8,50.4-40.8c1.8,38-27.4,34.2-27.4,34.2c-31.8,0.2-38.5-11-38.5-11
		c-0.9,64-33.6,60.6-38.7,60c34.6-13.4,26.6-48.2,26.6-48.2c-8.2,31.8-47.8,43.2-47.8,43.2c26.8-5.4,49.5-43.1,47.8-43.2
		c10.8,23.7-16.5,46.8-28.8,48.6C645.2,579.3,647.3,553.7,649.4,555z"/>
	<path class="st0" d="M390.2,414.2c4.8-10.4-4-6.4-4-6.4c-6.8-9.2-7.8,4.8-7.8,4.8C379.6,418.4,390.2,414.2,390.2,414.2z"/>
</g>
</svg>
